<?xml version="1.0" encoding="UTF-8"?>
<svg id="Layer_1" data-name="Layer 1" xmlns="http://www.w3.org/2000/svg" viewBox="0 0 120 120">
  <defs>
    <style>
      .cls-1 {
        fill: #fff;
      }
    </style>
  </defs>
  <path class="cls-1" d="M37.58,81.1l-1.29-2.4,18.39-9.89,1.14,2.12v5.17s-2.14.54-2.14.54v-4.12s-.02-.06-.02-.06l-16.07,8.64Z"/>
  <path class="cls-1" d="M54.68,60.65l-1.34-.02-1.64-1.73c-3.86-4.16-5.92-6.05-8.34-6.1-1.63-.02-3.16.75-3.19,3.15-.02,1.46.71,2.68,1.32,3.44l-1.54.67c-.93-1.13-1.6-2.72-1.58-4.58.04-3.47,2.44-4.9,4.74-4.87,2.97.04,5.35,2.22,8.57,5.66l1.17,1.3h.05s.09-7.23.09-7.23l1.81.02-.13,10.28Z"/>
  <path class="cls-1" d="M57.74,72.29v-5.68s-2.92,0-2.92,0v-2.22h2.92s0-12.98,0-12.98h3.05s9.31,13.33,9.31,13.33v1.86h-9.7s0,5.68,0,5.68h-2.67ZM67.25,64.39v-.06s-5.11-7.1-5.11-7.1c-.58-.96-1.09-1.86-1.73-3.08h-.1c.06,1.09.1,2.18.1,3.28v6.97s6.84,0,6.84,0Z"/>
  <path class="cls-1" d="M82.32,47.76l-4.66-4.66-3.6,2.67c.32.24.62.47,1.07.92.94.94,1.67,2.08,1.97,3.29.41,1.5.15,3.34-1.39,4.88-2.38,2.38-6.06,2.27-8.71-.38-1.33-1.33-2.08-2.83-2.29-3.79l1.67-.84c.21.81.83,2.18,1.93,3.28,1.56,1.56,3.9,1.88,5.54.24,1.56-1.6,1.63-3.77-.81-6.21-.69-.69-1.31-1.16-1.82-1.56l6.65-5.07,5.84,5.84-1.39,1.39Z"/>
  <path class="cls-1" d="M76.11,69.42v1.86s-9.09,19.01-9.09,19.01h-2.92l9.06-18.47v-.06h-10.21v-2.34h13.17Z"/>
  <path class="cls-1" d="M45.76,33.83c.46-.51,1.14-1.14,1.99-1.76,1.81-1.44,4.1-2.34,6.4-2.36,2.92-.05,6.35,1.16,9.67,4.47,3.85,3.85,4.45,8.25,1.37,11.34-3.08,3.08-7.65,2.64-10.5-.21-2.57-2.57-2.87-6.35-.16-9.06,1.51-1.51,3.32-2.11,5.17-1.92l.07-.07c-2.06-1.51-4.1-2.11-6-2.02-1.67.05-3.27.67-4.61,1.69-.76.63-1.32,1.09-1.72,1.58l-1.67-1.67ZM63.47,44.12c2.13-2.13,1.11-5.05-1.46-7.63-.32-.32-.63-.49-.93-.56-1.44-.37-3.18.02-4.54,1.39-1.76,1.76-1.58,4.22.3,6.1,2.13,2.13,4.89,2.43,6.63.7Z"/>
</svg>
