<?xml version="1.0" encoding="UTF-8"?>
<svg xmlns="http://www.w3.org/2000/svg" viewBox="0 0 120 120">
  <!-- Square (left) -->
  <path fill="currentColor" d="M39.39,47.18v25.65H13.74v-25.65h25.65M41.39,45.18H11.74v29.65h29.65v-29.65h0Z"/>
  <!-- Triangle (center) -->
  <path fill="currentColor" d="M62.75,49.18l13.65,23.65h-27.31l13.65-23.65M62.75,45.18l-17.12,29.65h34.24l-17.12-29.65h0Z"/>
  <!-- Circle (right) -->
  <path fill="currentColor" d="M93.43,47.18c7.07,0,12.82,5.75,12.82,12.82s-5.75,12.82-12.82,12.82-12.82-5.75-12.82-12.82,5.75-12.82,12.82-12.82M93.43,45.18c-8.19,0-14.82,6.64-14.82,14.82s6.64,14.82,14.82,14.82,14.82-6.64,14.82-14.82-6.64-14.82-14.82-14.82h0Z"/>
</svg>
